<?xml version="1.0" encoding="UTF-8"?>
<!DOCTYPE svg PUBLIC "-//W3C//DTD SVG 1.1//EN" "http://www.w3.org/Graphics/SVG/1.1/DTD/svg11.dtd">
<svg xmlns="http://www.w3.org/2000/svg" version="1.1" width="1000px" height="500px" style="shape-rendering:geometricPrecision; text-rendering:geometricPrecision; image-rendering:optimizeQuality; fill-rule:evenodd; clip-rule:evenodd" xmlns:xlink="http://www.w3.org/1999/xlink">
<g><path style="opacity:0.894" fill="#000000" d="M 491.5,108.5 C 497.496,107.333 499.996,109.666 499,115.5C 495.732,117.706 492.232,119.539 488.5,121C 478.526,132.569 473.026,146.069 472,161.5C 471.039,168.353 471.706,175.02 474,181.5C 478.172,184.008 482.672,185.842 487.5,187C 490.456,191.599 489.29,194.766 484,196.5C 476.797,194.733 470.464,191.399 465,186.5C 460.981,177.919 459.647,168.919 461,159.5C 462.415,141.218 469.582,125.718 482.5,113C 485.592,111.454 488.592,109.954 491.5,108.5 Z"/></g>
<g><path style="opacity:0.9" fill="#000000" d="M 617.5,112.5 C 621.58,112.081 623.58,113.914 623.5,118C 617.911,137.864 616.078,158.031 618,178.5C 618.833,180.667 620.333,182.167 622.5,183C 627.56,184.514 632.56,186.181 637.5,188C 640.328,195.164 637.995,198.164 630.5,197C 622.679,194.842 615.845,191.008 610,185.5C 605.404,173.168 604.404,160.501 607,147.5C 608.41,139.115 610.077,130.782 612,122.5C 613.086,118.654 614.919,115.32 617.5,112.5 Z"/></g>
<g><path style="opacity:0.898" fill="#000000" d="M 590.5,117.5 C 596.831,116.029 599.998,118.362 600,124.5C 599.167,125.333 598.333,126.167 597.5,127C 586.711,127.804 578.877,132.97 574,142.5C 571.161,148.018 569.327,153.851 568.5,160C 571.435,166.727 571.935,173.56 570,180.5C 566.475,182.19 563.475,181.524 561,178.5C 559.789,172.111 558.456,165.778 557,159.5C 555.713,162.145 553.547,163.145 550.5,162.5C 549.833,160.181 549.666,157.847 550,155.5C 552.522,152.674 554.522,153.007 556,156.5C 556.167,156 556.333,155.5 556.5,155C 553.451,146.306 551.285,137.473 550,128.5C 551.99,125.278 554.49,124.778 557.5,127C 558.958,131.334 560.791,135.501 563,139.5C 568.262,127.051 577.429,119.717 590.5,117.5 Z"/></g>
<g><path style="opacity:0.913" fill="#000000" d="M 528.5,126.5 C 531.152,127.152 532.819,128.819 533.5,131.5C 531.438,147.435 534.272,162.768 542,177.5C 543.164,184.995 540.164,187.328 533,184.5C 528.638,177.753 525.638,170.419 524,162.5C 520.657,168.918 515.49,171.751 508.5,171C 506.951,169.786 505.785,168.286 505,166.5C 502.907,146.982 510.74,133.649 528.5,126.5 Z M 520.5,144.5 C 519.958,147.912 518.625,150.912 516.5,153.5C 517.059,150.057 518.393,147.057 520.5,144.5 Z"/></g>
<g><path style="opacity:0.936" fill="#000000" d="M 641.5,195.5 C 647.211,194.38 650.044,196.713 650,202.5C 661.415,208.248 669.749,216.915 675,228.5C 677.454,229.198 679.787,230.198 682,231.5C 682.167,232.667 682.333,233.833 682.5,235C 680.874,238.644 679.208,242.311 677.5,246C 680.072,249.819 679.905,253.652 677,257.5C 672.513,262.476 668.513,267.809 665,273.5C 662.297,276.538 659.297,279.205 656,281.5C 657.159,310.809 657.493,340.142 657,369.5C 656.667,376.167 656.333,382.833 656,389.5C 655.555,394.938 652.721,396.771 647.5,395C 645.051,393.137 644.051,390.637 644.5,387.5C 647.129,354.441 646.796,321.441 643.5,288.5C 622.472,297.176 601.806,296.343 581.5,286C 576.077,282.581 571.244,278.415 567,273.5C 565.837,279.657 563.504,285.324 560,290.5C 540.215,313.43 515.715,321.263 486.5,314C 483.397,312.561 480.564,310.727 478,308.5C 477.333,340.833 477.333,373.167 478,405.5C 478.588,418.955 480.088,432.288 482.5,445.5C 483,445.833 483.5,446.167 484,446.5C 500.722,440.361 517.889,435.861 535.5,433C 567.525,428.14 599.525,423.473 631.5,419C 635.5,422.333 635.5,425.667 631.5,429C 626.833,430 622.167,431 617.5,432C 583.717,436.598 550.05,441.931 516.5,448C 501.144,451.897 485.977,456.397 471,461.5C 464.901,459.601 464.067,456.434 468.5,452C 469.448,451.517 470.448,451.351 471.5,451.5C 469.342,439.261 467.842,426.928 467,414.5C 466.897,374.485 466.231,334.485 465,294.5C 462.422,290.509 460.255,286.343 458.5,282C 459.257,273.857 459.757,265.69 460,257.5C 462.811,248.791 462.478,240.125 459,231.5C 458.225,228.503 456.559,226.17 454,224.5C 453.372,218.46 456.205,215.627 462.5,216C 471.192,215.646 479.859,214.979 488.5,214C 502.379,205.358 517.379,202.358 533.5,205C 538.483,206.507 542.817,209.007 546.5,212.5C 561.809,210.503 577.142,208.67 592.5,207C 597.821,203.891 603.488,201.558 609.5,200C 614.122,199.307 618.622,199.807 623,201.5C 628.367,200.106 633.701,199.773 639,200.5C 639.366,198.548 640.199,196.882 641.5,195.5 Z M 631.5,214.5 C 634.5,214.5 637.5,214.5 640.5,214.5C 640.284,223.523 640.617,232.523 641.5,241.5C 641.167,242.833 640.833,244.167 640.5,245.5C 634.268,249.643 630.268,255.31 628.5,262.5C 629.84,266.372 630.674,270.372 631,274.5C 632.444,276.155 634.278,276.822 636.5,276.5C 636.5,277.5 636.5,278.5 636.5,279.5C 615.229,286.025 595.562,282.858 577.5,270C 573.695,265.909 572.528,261.076 574,255.5C 578.885,244.274 586.385,235.107 596.5,228C 601.996,224.084 607.663,220.418 613.5,217C 619.634,216.088 625.634,215.255 631.5,214.5 Z M 650.5,216.5 C 653.538,218.112 656.371,220.112 659,222.5C 662.224,226.281 664.39,230.614 665.5,235.5C 665.167,236.167 664.833,236.833 664.5,237.5C 660.183,236.311 655.85,236.311 651.5,237.5C 651.623,230.471 651.29,223.471 650.5,216.5 Z M 579.5,219.5 C 580.239,219.369 580.906,219.536 581.5,220C 575.961,227.576 570.794,235.41 566,243.5C 563.093,235.59 558.26,229.09 551.5,224C 560.944,222.383 570.277,220.883 579.5,219.5 Z M 522.5,225.5 C 525.839,225.89 529.173,226.39 532.5,227C 530,229.5 527.5,232 525,234.5C 522.651,231.983 520.151,229.65 517.5,227.5C 519.291,226.83 520.958,226.163 522.5,225.5 Z M 468.5,226.5 C 470.199,226.34 471.866,226.506 473.5,227C 471.951,228.214 470.785,229.714 470,231.5C 468.991,229.975 468.491,228.308 468.5,226.5 Z M 541.5,231.5 C 547.487,233.988 551.653,238.322 554,244.5C 561.913,266.43 556.079,283.597 536.5,296C 525.265,303.558 512.932,306.891 499.5,306C 490.368,304.185 482.868,299.685 477,292.5C 476.176,289.118 476.343,285.784 477.5,282.5C 486.5,278.667 495.5,274.833 504.5,271C 511.324,268.091 517.658,264.424 523.5,260C 528.917,255.848 531.251,250.515 530.5,244C 534.724,240.279 538.391,236.112 541.5,231.5 Z M 476.5,243.5 C 477.252,239.66 479.252,236.66 482.5,234.5C 483.521,235.002 483.688,235.668 483,236.5C 481.281,239.288 479.115,241.621 476.5,243.5 Z"/></g>
</svg>
